<?xml version="1.0" encoding="UTF-8" standalone="no"?>
<!-- Created with Inkscape (http://www.inkscape.org/) -->

<svg
   xmlns:dc="http://purl.org/dc/elements/1.1/"
   xmlns:cc="http://creativecommons.org/ns#"
   xmlns:rdf="http://www.w3.org/1999/02/22-rdf-syntax-ns#"
   xmlns:svg="http://www.w3.org/2000/svg"
   xmlns="http://www.w3.org/2000/svg"
   xmlns:sodipodi="http://sodipodi.sourceforge.net/DTD/sodipodi-0.dtd"
   xmlns:inkscape="http://www.inkscape.org/namespaces/inkscape"
   width="199.63509mm"
   height="201.16292mm"
   viewBox="0 0 199.63509 201.16292"
   version="1.1"
   id="svg8"
   inkscape:version="0.92.4 (unknown)"
   sodipodi:docname="logo.svg">
  <defs
     id="defs2">
    <filter
       y="-0.25"
       height="1.5"
       inkscape:menu-tooltip="Darkens the edge with an inner blur and adds a flexible glow"
       inkscape:menu="Shadows and Glows"
       inkscape:label="Dark and Glow"
       style="color-interpolation-filters:sRGB"
       id="filter835">
      <feGaussianBlur
         stdDeviation="5"
         result="result6"
         id="feGaussianBlur825" />
      <feComposite
         result="result8"
         in="SourceGraphic"
         operator="atop"
         in2="result6"
         id="feComposite827" />
      <feComposite
         result="result9"
         operator="over"
         in2="SourceAlpha"
         in="result8"
         id="feComposite829" />
      <feColorMatrix
         values="1 0 0 0 0 0 1 0 0 0 0 0 1 0 0 0 0 0 1 0 "
         result="result10"
         id="feColorMatrix831" />
      <feBlend
         in="result10"
         mode="normal"
         in2="result6"
         id="feBlend833" />
    </filter>
    <filter
       y="-0.25"
       height="1.5"
       inkscape:menu-tooltip="Darkens the edge with an inner blur and adds a flexible glow"
       inkscape:menu="Shadows and Glows"
       inkscape:label="Dark and Glow"
       style="color-interpolation-filters:sRGB"
       id="filter847">
      <feGaussianBlur
         stdDeviation="5"
         result="result6"
         id="feGaussianBlur837" />
      <feComposite
         result="result8"
         in="SourceGraphic"
         operator="atop"
         in2="result6"
         id="feComposite839" />
      <feComposite
         result="result9"
         operator="over"
         in2="SourceAlpha"
         in="result8"
         id="feComposite841" />
      <feColorMatrix
         values="1 0 0 0 0 0 1 0 0 0 0 0 1 0 0 0 0 0 1 0 "
         result="result10"
         id="feColorMatrix843" />
      <feBlend
         in="result10"
         mode="normal"
         in2="result6"
         id="feBlend845" />
    </filter>
    <filter
       y="-0.25"
       height="1.5"
       inkscape:menu-tooltip="Darkens the edge with an inner blur and adds a flexible glow"
       inkscape:menu="Shadows and Glows"
       inkscape:label="Dark and Glow"
       style="color-interpolation-filters:sRGB"
       id="filter886">
      <feGaussianBlur
         stdDeviation="5"
         result="result6"
         id="feGaussianBlur876" />
      <feComposite
         result="result8"
         in="SourceGraphic"
         operator="atop"
         in2="result6"
         id="feComposite878" />
      <feComposite
         result="result9"
         operator="over"
         in2="SourceAlpha"
         in="result8"
         id="feComposite880" />
      <feColorMatrix
         values="1 0 0 0 0 0 1 0 0 0 0 0 1 0 0 0 0 0 1 0 "
         result="result10"
         id="feColorMatrix882" />
      <feBlend
         in="result10"
         mode="normal"
         in2="result6"
         id="feBlend884" />
    </filter>
  </defs>
  <sodipodi:namedview
     id="base"
     pagecolor="#ffffff"
     bordercolor="#666666"
     borderopacity="1.0"
     inkscape:pageopacity="0.0"
     inkscape:pageshadow="2"
     inkscape:zoom="0.46757812"
     inkscape:cx="381.60735"
     inkscape:cy="335.97328"
     inkscape:document-units="mm"
     inkscape:current-layer="layer5"
     showgrid="false"
     inkscape:window-width="1024"
     inkscape:window-height="549"
     inkscape:window-x="0"
     inkscape:window-y="0"
     inkscape:window-maximized="1" />
  <metadata
     id="metadata5">
    <rdf:RDF>
      <cc:Work
         rdf:about="">
        <dc:format>image/svg+xml</dc:format>
        <dc:type
           rdf:resource="http://purl.org/dc/dcmitype/StillImage" />
        <dc:title></dc:title>
      </cc:Work>
    </rdf:RDF>
  </metadata>
  <g
     inkscape:label="Layer 1"
     inkscape:groupmode="layer"
     id="layer1"
     transform="translate(-4.8663883,-36.563347)">
    <ellipse
       style="fill:#ff0000;fill-rule:evenodd;stroke-width:0.26741925;filter:url(#filter847)"
       id="path10"
       cx="105.24979"
       cy="137.14481"
       rx="67.337234"
       ry="67.054306" />
  </g>
  <g
     inkscape:groupmode="layer"
     id="layer2"
     inkscape:label="Layer 2"
     transform="translate(-4.8663883,-36.563347)">
    <rect
       style="opacity:1;fill:#000000;fill-opacity:1;stroke:#000000;stroke-width:0.15699999;stroke-linejoin:round;stroke-miterlimit:4;stroke-dasharray:none;stroke-opacity:1;paint-order:stroke markers fill;filter:url(#filter835)"
       id="rect15"
       width="166.36256"
       height="47.532162"
       x="21.502645"
       y="116.49095" />
  </g>
  <g
     inkscape:groupmode="layer"
     id="layer5"
     inkscape:label="Layer 5"
     transform="translate(-4.8663883,-36.563347)">
    <g
       aria-label="+"
       transform="matrix(1.8467552,0,0,1.6991157,-708.54753,-1093.9595)"
       style="font-style:normal;font-variant:normal;font-weight:500;font-stretch:normal;font-size:40px;line-height:1.25;font-family:'Tlwg Typo';-inkscape-font-specification:'Tlwg Typo, Medium';font-variant-ligatures:normal;font-variant-caps:normal;font-variant-numeric:normal;font-feature-settings:normal;text-align:center;letter-spacing:0px;word-spacing:0px;writing-mode:lr-tb;text-anchor:middle;fill:#00ffff;fill-opacity:1;stroke:none;filter:url(#filter886)"
       id="flowRoot868">
      <path
         d="m 463.83223,725.62055 v 8.08 q 0,1.08 -0.8,1.08 -0.84,0 -0.84,-1.08 v -8.08 h -7.2 q -1.08,0 -1.08,-0.84 0,-0.8 1.08,-0.8 h 7.2 v -8.04 q 0,-1.08 0.84,-1.08 0.8,0 0.8,1.08 v 8.04 h 7.2 q 1.12,0 1.12,0.8 0,0.84 -1.12,0.84 z"
         style=""
         id="path916" />
    </g>
  </g>
  <g
     inkscape:groupmode="layer"
     id="layer4"
     inkscape:label="Layer 4"
     transform="translate(-4.8663883,-36.563347)">
    <g
       aria-label="AUTO"
       transform="matrix(1.0969462,0,0,1.2261739,-366.35534,-492.54677)"
       style="font-style:normal;font-variant:normal;font-weight:normal;font-stretch:normal;font-size:40px;line-height:1.25;font-family:'URW Gothic L';-inkscape-font-specification:'URW Gothic L, Normal';font-variant-ligatures:normal;font-variant-caps:normal;font-variant-numeric:normal;font-feature-settings:normal;text-align:center;letter-spacing:0px;word-spacing:0px;writing-mode:lr-tb;text-anchor:middle;fill:#ffffff;fill-opacity:1;stroke:none"
       id="flowRoot859">
      <path
         d="m 377.59527,528.76624 h 3.12 l 4.32,-9.96 h 13.76 l 4.28,9.96 h 3.24 l -12.72,-29.56 h -3.32 z m 8.56,-12.64 5.8,-13.56 5.68,13.56 z"
         style=""
         id="path907" />
      <path
         d="m 409.80465,499.20624 v 18.44 c 0,3.8 0.6,6.04 2.08,8 1.76,2.28 4.72,3.64 7.96,3.64 3.28,0 6.24,-1.36 8,-3.64 1.48,-1.96 2.08,-4.2 2.08,-8 v -18.44 h -2.96 v 18.44 c 0,2.68 -0.44,4.72 -1.36,6.12 -1.12,1.72 -3.32,2.8 -5.72,2.8 -2.44,0 -4.64,-1.08 -5.76,-2.8 -0.92,-1.4 -1.36,-3.44 -1.36,-6.12 v -18.44 z"
         style=""
         id="path909" />
      <path
         d="m 439.97652,528.76624 h 2.96 v -26.88 h 6.76 v -2.68 h -16.48 v 2.68 h 6.76 z"
         style=""
         id="path911" />
      <path
         d="m 467.36777,498.68624 c -8.48,0 -15.64,6.92 -15.64,15.12 0,8.6 6.96,15.48 15.64,15.48 8.56,0 15.6,-6.92 15.6,-15.28 0,-8.44 -7.04,-15.32 -15.6,-15.32 z m 0,2.72 c 6.88,0 12.6,5.72 12.6,12.64 0,6.84 -5.72,12.52 -12.6,12.52 -6.96,0 -12.64,-5.68 -12.64,-12.68 0,-6.76 5.8,-12.48 12.64,-12.48 z"
         style=""
         id="path913" />
    </g>
  </g>
</svg>
