<svg id="Capa_1" enable-background="new 0 0 512 512" height="512" viewBox="0 0 512 512" width="512" xmlns="http://www.w3.org/2000/svg"><g><path d="m484.334 358.333v-303.916h-456.667v303.917h-27.667v34.25c0 35.841 29.159 65 65 65h382c35.841 0 65-29.159 65-65v-34.25h-27.666zm-454.334 34.25v-4.25h452v4.25c0 19.299-15.701 35-35 35h-382c-19.299 0-35-15.701-35-35zm424.334-308.166v273.917h-396.667v-273.917z"/><path d="m279.018 149.351h30v143.993h-30z"/><path d="m166 234.393h48.885v58.951h30v-143.993h-30v55.042h-48.885v-55.042h-30v143.993h30z"/><path d="m361.25 307c9.22 0 16.694-7.474 16.694-16.693 0-9.22-7.474-16.693-16.694-16.693s-16.693 7.474-16.693 16.693c-.001 9.219 7.473 16.693 16.693 16.693z"/><path d="m346.36 138.334h30v115.333h-30z"/></g></svg>